<svg width="1919" height="858" viewBox="0 0 1919 858" fill="none" xmlns="http://www.w3.org/2000/svg">
<g id="centreM2 1">
<g id="version3">
<g id="Calque 2   copie 3">
<g id="Group">
<path id="Vector" d="M1310.74 697.54C1274.79 653.12 1240.82 591.2 1240.8 591.18C1207.78 514.04 1204.16 490.5 1196.14 471.05C1188.12 451.6 1164.46 350.76 1164.46 350.76L1139.27 243.21L1119.04 159.04C1119.04 159.04 1114.27 134.36 1112.36 120.79C1110.45 107.22 1111.04 92.09 1111.04 92.09C1110.93 77.97 1120.06 65.33 1134.5 61.78C1148.58 58.33 1164.44 64.07 1170.76 74.37C1171.23 75.13 1178.97 88.2 1170 96.76C1162.93 103.5 1151.21 101.98 1150.15 101.83L1151.1 99.71C1157.42 99.33 1162.18 95.78 1162.74 91.86C1163.48 86.67 1156.57 82.73 1151.48 81.89C1142.81 80.47 1132.78 86.98 1131.82 94.64C1130.73 103.34 1141.87 109.54 1149.57 111.31C1164.17 114.66 1175.97 104.27 1176.86 103.46C1189.15 92.28 1183.97 76.48 1183.35 74.69C1180.31 65.97 1173.58 60.96 1171.33 59.33C1160.44 51.44 1147.95 51.19 1143.08 51.16C1139.19 51.13 1126.8 51.2 1115.02 58.68C1112.12 60.52 1106.18 63.48 1101.93 71.79L1101.33 73.01L1099.99 76.25C1099.99 76.25 1098.42 79.92 1099.61 82.55C1100.4 84.28 1100.26 86.05 1099.83 87.1C1099.63 87.6 1099.25 88.03 1098.73 88.32C1097.54 88.99 1095.12 90 1093.35 88.43C1090.92 86.26 1093.93 80.1 1093.93 80.1C1099.33 65.36 1086.15 59.55 1084.63 58.91C1084.53 58.87 1084.42 58.89 1084.35 58.96C1081.89 61.65 1084.85 73.06 1084.85 73.06L1080.32 70.31C1080.28 70.29 1080.26 70.26 1080.24 70.22C1073.04 52.3 1050.04 54.51 1046.25 55C1046.05 55.03 1046.03 55.24 1046.2 55.33C1113.87 91.62 1075.5 182.56 1075.5 182.56L1037.14 292.39L962.9 502.09L912 649.42C911.98 649.48 911.99 649.55 912.04 649.6C918.9 656.28 925.97 663.65 933.07 671.75C939.17 678.7 944.66 685.49 949.61 692C949.71 692.13 949.92 692.11 949.98 691.97C950.79 690.17 952.2 687.79 954.7 685.56C955.57 684.78 956.45 684.14 957.28 683.6C950.97 674.85 943.69 665.7 935.31 656.39C932 652.72 928.69 649.2 925.39 645.85C925.34 645.8 925.33 645.73 925.35 645.67L952.79 576.14L998.59 446.53C998.59 446.53 1045.92 309.07 1068.63 241.41C1091.34 173.74 1091.15 184.86 1091.15 184.86C1108.71 264.78 1106.23 257.59 1108.34 269.66C1108.34 269.68 1108.33 269.7 1108.34 269.72L1123.41 383.77C1123.41 383.77 1131.43 469.9 1134.48 487.88C1137.08 503.17 1135.4 566.91 1134.83 585.65C1134.79 586.81 1134.76 587.81 1134.74 588.6C1134.69 590.05 1134.67 590.85 1134.67 590.85C1134.67 590.85 1125.89 648.55 1116.73 675.39C1107.57 702.24 1097.41 715.47 1088.25 727.49C1079.85 738.5 1067.78 739.18 1062.02 736.77C1061.78 736.72 1061.55 736.66 1061.3 736.61C1060.59 736.37 1058.92 735.7 1056.99 734.23C1054.41 732.27 1055.94 730.92 1055.94 730.92C1055.94 730.92 1057.42 729.86 1060.14 731.33C1062.86 732.8 1069.35 734.68 1072.02 730.51C1074.69 726.34 1073.12 722.3 1070.06 720.29C1067.01 718.29 1060.9 716.2 1055.56 719.6C1050.22 722.99 1048.5 727.24 1047.93 729.57C1047.36 731.9 1048.05 737.01 1053.68 740.72C1059.31 744.44 1073.7 744.54 1079.66 742.68C1085.96 740.72 1098.25 736.5 1107.43 721.6C1126.75 690.22 1129.2 681.35 1129.88 669.51C1129.89 669.31 1130.18 669.27 1130.28 669.45C1131.73 672.18 1136.99 681.55 1140.02 679.59C1143.55 677.3 1154.48 648.04 1153.93 604.89L1153.76 599.92C1153.76 599.86 1153.73 599.81 1153.67 599.77C1152.92 599.3 1147.52 595.88 1145.74 593.45C1143.83 590.83 1146.89 590.83 1146.89 590.83L1154.71 594.1C1150.74 589.46 1151.21 586.72 1151.27 586.44C1151.28 586.41 1151.29 586.4 1151.32 586.38C1158.16 581 1160.63 575.45 1159.87 569.9C1159.19 564.93 1159.73 555.66 1159.85 553.74C1159.86 553.59 1159.68 553.5 1159.53 553.57C1158.02 554.3 1151.87 556.55 1148.04 546.85C1143.65 535.74 1154.34 523.64 1159.68 518.9C1164.35 514.76 1165.37 512.24 1165.56 511.67C1165.59 511.59 1165.55 511.53 1165.47 511.49C1164.48 511.06 1158.09 507.94 1158.26 498.25C1158.36 492.33 1163.84 487.86 1170.6 489.1C1178.54 490.56 1177.98 499.58 1177.43 503.85C1176.86 508.26 1171.7 521.17 1161.97 525.75C1152.24 530.33 1152.43 547 1155.48 547.49C1158.53 547.98 1161.01 548.63 1168.46 543.57C1175.91 538.51 1172.66 545.69 1172.66 545.69C1163.69 553.21 1166.36 563.18 1166.36 563.18C1169.4 580.63 1160.21 587.47 1159.04 588.27C1158.96 588.32 1158.96 588.41 1159.01 588.49C1172.56 609.05 1193.08 594.57 1193.08 594.57L1195.18 595.55C1188.47 611.19 1195.77 616.23 1196.12 616.46C1196.14 616.47 1196.15 616.47 1196.17 616.48C1211.98 619.39 1218.08 605.69 1218.08 605.69C1219.4 605.07 1221.3 604.42 1222.85 605.04C1227.45 606.88 1217.75 619.48 1224.38 630.21C1230.9 640.78 1230.42 654.56 1230.31 656.6C1230.3 656.73 1230.45 656.82 1230.6 656.79C1238.97 654.83 1242.51 645.58 1242.51 645.58L1246.2 647.95C1246.27 648 1246.3 648.08 1246.27 648.16C1241.3 661.47 1252.61 670.92 1254.46 672.36C1254.58 672.45 1254.77 672.4 1254.82 672.27L1260.99 655.8C1261.06 655.62 1261.34 655.63 1261.41 655.81C1273.31 690.01 1306.06 697 1310.52 697.8C1310.72 697.85 1310.85 697.67 1310.74 697.54ZM1150.91 396.02C1150.91 396.02 1174.96 446.85 1167.51 443.42C1160.07 439.99 1152.81 444.73 1152.81 444.73V445.55C1149.18 439.34 1148.61 410.74 1148.23 401.75C1147.86 392.76 1150.91 396.02 1150.91 396.02ZM1175.91 458.79C1175.91 458.79 1164.65 453.23 1150.91 461.24C1150.91 461.24 1159.5 443.42 1175.91 458.79ZM1152.82 477.91C1163.13 460.42 1177.25 475.79 1177.25 475.79C1162.36 467.78 1152.82 477.91 1152.82 477.91ZM1172.86 585.46C1172.86 585.46 1204.73 556.86 1202.06 530.05C1202.06 530.05 1220.38 572.87 1172.86 585.46ZM1220.57 585.46C1220.57 585.46 1223.05 560.13 1225.53 584.48V588.89C1225.53 588.89 1222.29 587.09 1220.57 588.89C1218.85 590.69 1220.57 585.46 1220.57 585.46ZM1217.9 596.9C1217.9 596.9 1223.63 589.22 1228.78 596.9C1228.78 596.9 1221.33 594.93 1217.9 596.9ZM1241.18 635.47L1234.69 639.88C1234.69 639.88 1232.97 641.84 1235.64 631.22C1238.31 620.6 1235.64 596.9 1235.64 596.9C1244.05 608.99 1241.18 635.47 1241.18 635.47Z" fill="#D8D8D5"/>
</g>
<g id="Group_2">
<path id="Vector_2" d="M956.07 502.1L881.83 292.4L843.47 182.57C843.47 182.57 805.1 91.63 872.77 55.34C872.94 55.25 872.91 55.04 872.72 55.01C868.93 54.52 845.93 52.31 838.73 70.23C838.72 70.27 838.69 70.3 838.65 70.32L834.12 73.07C834.12 73.07 837.08 61.66 834.62 58.97C834.55 58.89 834.44 58.87 834.34 58.92C832.82 59.56 819.64 65.37 825.04 80.11C825.04 80.11 828.06 86.27 825.62 88.44C823.85 90.01 821.44 89 820.24 88.33C819.72 88.04 819.35 87.61 819.14 87.11C818.72 86.07 818.58 84.29 819.36 82.56C820.55 79.93 818.98 76.26 818.98 76.26L817.64 73.02L817.04 71.8C812.78 63.5 806.84 60.53 803.95 58.69C792.17 51.21 779.78 51.15 775.89 51.17C771.02 51.2 758.53 51.45 747.64 59.34C745.38 60.97 738.66 65.98 735.62 74.7C735 76.49 729.82 92.29 742.11 103.47C743 104.28 754.8 114.67 769.4 111.32C777.1 109.55 788.24 103.35 787.15 94.65C786.19 86.99 776.16 80.48 767.49 81.9C762.4 82.74 755.49 86.68 756.23 91.87C756.79 95.78 761.55 99.33 767.87 99.72L768.82 101.84C767.76 101.99 756.04 103.52 748.97 96.77C740 88.21 747.74 75.14 748.21 74.38C754.53 64.09 770.39 58.34 784.47 61.79C798.92 65.33 808.04 77.97 807.93 92.1C807.93 92.1 808.52 107.23 806.61 120.8C804.7 134.37 799.93 159.05 799.93 159.05L779.7 243.22L754.51 350.77C754.51 350.77 730.84 451.61 722.83 471.06C714.81 490.51 711.19 514.05 678.17 591.19C678.16 591.22 644.19 653.13 608.23 697.55C608.12 697.69 608.25 697.87 608.44 697.83C612.9 697.03 645.64 690.04 657.55 655.84C657.61 655.66 657.9 655.65 657.97 655.83L664.14 672.3C664.19 672.43 664.38 672.48 664.5 672.39C666.35 670.96 677.66 661.5 672.69 648.19C672.66 648.11 672.69 648.03 672.76 647.98L676.45 645.61C676.45 645.61 679.99 654.86 688.36 656.82C688.5 656.85 688.66 656.76 688.65 656.63C688.54 654.6 688.06 640.82 694.58 630.24C701.2 619.51 691.51 606.91 696.11 605.07C697.66 604.45 699.56 605.1 700.88 605.72C700.88 605.72 706.98 619.43 722.79 616.51C722.81 616.51 722.82 616.51 722.84 616.49C723.19 616.26 730.49 611.22 723.78 595.58L725.88 594.6C725.88 594.6 746.4 609.08 759.95 588.52C760 588.45 759.99 588.36 759.92 588.3C758.74 587.5 749.56 580.66 752.6 563.21C752.6 563.21 755.27 553.24 746.3 545.72C746.3 545.72 743.06 538.53 750.5 543.6C757.94 548.67 760.42 548.01 763.48 547.52C766.53 547.03 766.72 530.36 756.99 525.78C747.26 521.2 742.1 508.29 741.53 503.88C740.98 499.61 740.42 490.58 748.36 489.13C755.12 487.89 760.6 492.36 760.7 498.28C760.87 507.96 754.49 511.09 753.49 511.52C753.41 511.56 753.37 511.62 753.4 511.7C753.59 512.27 754.61 514.79 759.28 518.93C764.62 523.67 775.31 535.76 770.92 546.88C767.09 556.58 760.93 554.33 759.43 553.6C759.28 553.53 759.1 553.62 759.11 553.77C759.23 555.68 759.77 564.96 759.09 569.93C758.33 575.48 760.8 581.02 767.64 586.41C767.67 586.43 767.68 586.44 767.69 586.47C767.75 586.75 768.22 589.49 764.25 594.13L772.07 590.86C772.07 590.86 775.12 590.86 773.22 593.48C771.45 595.91 766.04 599.33 765.29 599.8C765.23 599.83 765.2 599.89 765.2 599.95L765.03 604.92C764.48 648.07 775.41 677.33 778.94 679.62C781.97 681.58 787.23 672.2 788.68 669.48C788.78 669.3 789.07 669.35 789.08 669.54C789.76 681.37 792.21 690.25 811.53 721.63C820.71 736.53 833.1 741 839.4 742.96C845.36 744.82 859.18 744.59 864.81 740.88C870.44 737.16 871.6 731.93 871.03 729.6C870.46 727.27 868.74 723.02 863.4 719.63C858.06 716.24 851.95 718.32 848.9 720.32C845.85 722.32 844.27 726.37 846.94 730.54C849.61 734.71 856.1 732.83 858.82 731.36C861.54 729.89 863.02 730.95 863.02 730.95C863.02 730.95 864.55 732.3 861.97 734.26C860.04 735.73 858.38 736.4 857.66 736.64C857.42 736.7 857.19 736.75 856.94 736.8C851.18 739.2 839.11 738.53 830.71 727.52C821.55 715.51 811.39 702.27 802.23 675.42C793.07 648.57 784.29 590.88 784.29 590.88C784.29 590.88 784.26 590.08 784.22 588.63C784.2 587.84 784.16 586.85 784.13 585.68C783.57 566.94 781.89 503.2 784.48 487.91C787.53 469.93 795.55 383.8 795.55 383.8L810.62 269.75C810.62 269.73 810.61 269.71 810.62 269.69C812.73 257.62 810.25 264.81 827.81 184.89C827.81 184.89 827.62 173.78 850.33 241.44C873.04 309.11 920.37 446.56 920.37 446.56L966.17 576.17L993.61 645.7C993.63 645.76 993.62 645.83 993.57 645.88C990.27 649.24 986.96 652.75 983.65 656.42C975.26 665.73 967.99 674.88 961.68 683.63C962.51 684.17 963.39 684.82 964.26 685.59C966.76 687.82 968.17 690.2 968.98 692C969.04 692.14 969.26 692.16 969.35 692.03C974.3 685.51 979.8 678.73 985.89 671.78C992.99 663.68 1000.06 656.31 1006.92 649.63C1006.97 649.58 1006.99 649.52 1006.96 649.45L956.07 502.1ZM684.29 639.88L677.8 635.47C677.8 635.47 674.94 608.99 683.33 596.9C683.33 596.9 680.66 620.6 683.33 631.22C686.01 641.84 684.29 639.88 684.29 639.88ZM693.46 584.47C695.94 560.12 698.42 585.45 698.42 585.45C698.42 585.45 700.14 590.68 698.42 588.88C696.7 587.08 693.46 588.88 693.46 588.88V584.47ZM690.21 596.9C695.36 589.22 701.09 596.9 701.09 596.9C697.65 594.93 690.21 596.9 690.21 596.9ZM746.13 585.46C698.61 572.87 716.93 530.05 716.93 530.05C714.26 556.85 746.13 585.46 746.13 585.46ZM741.74 475.79C741.74 475.79 755.86 460.43 766.17 477.91C766.17 477.91 756.63 467.78 741.74 475.79ZM743.08 458.79C759.49 443.43 768.08 461.24 768.08 461.24C754.34 453.23 743.08 458.79 743.08 458.79ZM770.75 401.75C770.37 410.74 769.8 439.34 766.17 445.55V444.73C766.17 444.73 758.92 439.99 751.47 443.42C744.03 446.85 768.07 396.02 768.07 396.02C768.07 396.02 771.13 392.76 770.75 401.75Z" fill="#D8D8D5"/>
</g>
</g>
<g id="Calque 4   copie 3">
<g id="Group_3">
<g id="Group_4">
<path id="Vector_3" d="M1038.02 696.37C1038.02 697.28 1037.29 698.05 1036.27 698.26C1032.7 699.01 1024.39 699.68 1019.65 691.45C1013.49 680.79 1004.33 684.95 1004.33 684.95C1004.33 684.95 997.47 687.9 996.32 691.94C996.32 691.94 1001.91 687.51 1006.32 687.77C1006.32 687.77 997.16 697.22 995.02 712.28C992.87 727.37 992.15 740.49 986.44 745.51C980.7 750.53 967.67 755.94 960.97 744.76L959.37 744.71L957.8 744.76C951.06 755.94 938.04 750.53 932.3 745.51C926.59 740.49 925.86 727.37 923.72 712.28C921.57 697.22 912.42 687.77 912.42 687.77C916.86 687.51 922.45 691.94 922.45 691.94C921.3 687.9 914.41 684.95 914.41 684.95C914.41 684.95 905.25 680.78 899.09 691.45C894.35 699.68 886.04 699.01 882.47 698.26C881.44 698.05 880.75 697.28 880.72 696.37C880.66 691.53 881.87 679.37 900.54 676.99C919.03 674.61 926.01 686.44 927.43 689.36C927.64 689.75 927.64 690.19 927.49 690.63C920.99 709.83 940.45 726.26 940.45 726.26L938.76 727.99C938.76 727.99 935.13 732 941.18 735.44C944.75 737.51 948.4 735.1 949.55 732.08C949.82 731.36 949.85 730.01 949.85 729.83C949.91 728.51 949.91 723.62 945.32 721.01C940.18 718.06 936.31 711.07 936.31 711.07C930.05 699.89 932.14 693.83 933.62 691.45C934.13 690.62 935.25 690.26 936.31 690.49C944.89 692.38 946.04 700.63 946.04 700.63C946.04 700.63 949.33 703.09 950.75 700.63C952.02 698.51 950.21 695.3 949.57 694.21C949.45 694.05 948.72 692.81 948.69 692.61C945.18 678.71 952.95 671.7 957.73 668.83C958.21 668.55 958.76 668.44 959.27 668.49H959.45C959.96 668.44 960.51 668.54 960.99 668.83C965.76 671.7 973.53 678.72 970.06 692.61C970 692.82 969.27 694.06 969.18 694.21C968.52 695.3 966.73 698.51 967.97 700.63C969.39 703.09 972.68 700.63 972.68 700.63C972.68 700.63 973.83 692.37 982.44 690.49C983.47 690.26 984.59 690.62 985.1 691.45C986.61 693.83 988.7 699.89 982.41 711.07C982.41 711.07 978.54 718.06 973.41 721.01C968.82 723.62 968.82 728.51 968.88 729.83C968.91 730.01 968.94 731.36 969.21 732.08C970.33 735.11 973.98 737.51 977.55 735.44C983.59 732 980 727.99 980 727.99L978.28 726.26C978.28 726.26 997.74 709.83 991.24 690.63C991.09 690.19 991.12 689.75 991.3 689.36C992.72 686.44 999.73 674.61 1018.22 676.99C1036.88 679.36 1038.08 691.53 1038.02 696.37Z" fill="#D8D8D5"/>
</g>
<g id="Group_5">
<path id="Vector_4" d="M959.37 778.81C965.799 778.81 971.01 774.346 971.01 768.84C971.01 763.334 965.799 758.87 959.37 758.87C952.941 758.87 947.73 763.334 947.73 768.84C947.73 774.346 952.941 778.81 959.37 778.81Z" fill="#D8D8D5"/>
</g>
<g id="Group_6">
<path id="Vector_5" d="M971.02 791.37C971.02 792.48 970.31 797.52 969.89 798.53L965.13 826.75C964.19 832.47 954.55 832.47 953.62 826.75L948.91 797.95C948.49 796.94 947.73 792.49 947.73 791.38C947.73 785.87 952.96 781.42 959.39 781.42C965.82 781.42 971.02 785.85 971.02 791.37Z" fill="#D8D8D5"/>
</g>
</g>
</g>
</g>
</g>
</svg>
