<svg width="282" height="342" viewBox="0 0 282 342" fill="none" xmlns="http://www.w3.org/2000/svg">
<g id="M_gris 2">
<g clip-path="url(#clip0)">
<g id="version 3  NEGATIVE">
<g id="M">
<g id="Group">
<path id="Vector" d="M255.94 273.39C244.04 256.22 232.8 232.3 232.8 232.29C221.87 202.48 220.67 193.39 218.02 185.87C215.37 178.35 207.54 139.39 207.54 139.39L199.2 97.83L192.51 65.3C192.51 65.3 190.93 55.76 190.3 50.52C189.67 45.28 189.86 39.43 189.86 39.43C189.82 33.97 192.84 29.09 197.62 27.72C202.28 26.39 207.53 28.61 209.62 32.58C209.77 32.87 212.34 37.93 209.37 41.23C207.03 43.84 203.15 43.25 202.8 43.19L203.12 42.37C205.21 42.22 206.79 40.85 206.97 39.34C207.22 37.34 204.93 35.81 203.24 35.49C200.37 34.94 197.05 37.46 196.73 40.42C196.37 43.78 200.05 46.18 202.6 46.86C207.43 48.16 211.34 44.14 211.63 43.83C215.7 39.51 213.98 33.41 213.78 32.71C212.77 29.34 210.55 27.4 209.8 26.77C206.2 23.72 202.06 23.62 200.45 23.61C199.16 23.6 195.06 23.63 191.17 26.52C190.21 27.23 188.25 28.38 186.84 31.59L186.64 32.06L186.2 33.31C186.2 33.31 185.68 34.73 186.08 35.74C186.34 36.41 186.29 37.09 186.15 37.5C186.08 37.69 185.96 37.86 185.79 37.97C185.39 38.23 184.59 38.62 184.01 38.01C183.2 37.17 184.2 34.79 184.2 34.79C185.99 29.09 181.62 26.85 181.12 26.6C181.09 26.58 181.05 26.59 181.03 26.62C180.22 27.66 181.2 32.07 181.2 32.07L179.7 31.01C179.69 31 179.68 30.99 179.67 30.98C177.29 24.06 169.67 24.91 168.42 25.1C168.36 25.11 168.35 25.19 168.4 25.23C190.79 39.25 178.1 74.4 178.1 74.4L165.41 116.84L140.84 197.87L123.99 254.8C123.98 254.82 123.99 254.85 124 254.87C126.27 257.45 128.61 260.3 130.96 263.43C132.98 266.12 134.8 268.74 136.43 271.26C136.46 271.31 136.53 271.3 136.55 271.25C136.82 270.55 137.29 269.63 138.11 268.77C138.4 268.47 138.69 268.22 138.96 268.01C136.87 264.63 134.46 261.09 131.69 257.49C130.6 256.07 129.5 254.71 128.41 253.42C128.39 253.4 128.39 253.37 128.4 253.35L137.48 226.48L152.64 176.4C152.64 176.4 168.3 123.28 175.82 97.14C183.34 70.99 183.27 75.29 183.27 75.29C189.08 106.17 188.26 103.4 188.96 108.06C188.96 108.07 188.96 108.08 188.96 108.08L193.95 152.15C193.95 152.15 196.6 185.43 197.61 192.38C198.47 198.29 197.91 222.92 197.73 230.16C197.72 230.61 197.71 230.99 197.7 231.3C197.68 231.86 197.68 232.17 197.68 232.17C197.68 232.17 194.77 254.46 191.74 264.84C188.71 275.21 185.35 280.33 182.31 284.97C179.53 289.23 175.54 289.49 173.63 288.56C173.55 288.54 173.47 288.52 173.39 288.5C173.15 288.41 172.6 288.15 171.96 287.58C171.11 286.82 171.61 286.3 171.61 286.3C171.61 286.3 172.1 285.89 173 286.46C173.9 287.03 176.05 287.75 176.93 286.14C177.81 284.53 177.29 282.97 176.28 282.19C175.27 281.42 173.25 280.61 171.48 281.92C169.71 283.23 169.14 284.87 168.95 285.77C168.76 286.67 168.99 288.64 170.85 290.08C172.71 291.52 177.48 291.55 179.45 290.84C181.53 290.08 185.6 288.45 188.64 282.69C195.03 270.56 195.84 267.13 196.07 262.56C196.07 262.48 196.17 262.47 196.2 262.54C196.68 263.59 198.42 267.22 199.42 266.46C200.59 265.58 204.21 254.27 204.02 237.6L203.97 235.68C203.97 235.66 203.96 235.64 203.94 235.62C203.69 235.44 201.9 234.12 201.32 233.18C200.69 232.17 201.7 232.17 201.7 232.17L204.29 233.43C202.98 231.64 203.13 230.58 203.15 230.47C203.15 230.46 203.16 230.46 203.17 230.45C205.43 228.37 206.25 226.23 206 224.08C205.77 222.16 205.95 218.58 205.99 217.84C205.99 217.78 205.93 217.75 205.88 217.77C205.38 218.05 203.34 218.92 202.08 215.17C200.63 210.88 204.16 206.2 205.93 204.37C207.47 202.77 207.81 201.8 207.88 201.58C207.89 201.55 207.88 201.53 207.85 201.51C207.52 201.35 205.41 200.14 205.47 196.39C205.5 194.1 207.32 192.38 209.55 192.86C212.18 193.42 211.99 196.91 211.81 198.56C211.62 200.27 209.92 205.25 206.69 207.02C203.46 208.79 203.53 215.23 204.54 215.42C205.55 215.61 206.37 215.86 208.83 213.9C211.29 211.94 210.22 214.72 210.22 214.72C207.25 217.63 208.14 221.48 208.14 221.48C209.15 228.22 206.11 230.87 205.72 231.18C205.69 231.2 205.69 231.23 205.71 231.26C210.19 239.2 216.99 233.61 216.99 233.61L217.68 233.99C215.46 240.03 217.88 241.98 217.99 242.07C218 242.07 218 242.07 218.01 242.08C223.24 243.21 225.26 237.91 225.26 237.91C225.7 237.67 226.33 237.42 226.84 237.66C228.36 238.37 225.15 243.24 227.35 247.39C229.51 251.47 229.35 256.8 229.31 257.59C229.31 257.64 229.36 257.68 229.41 257.66C232.18 256.9 233.35 253.33 233.35 253.33L234.57 254.25C234.59 254.27 234.6 254.3 234.59 254.33C232.95 259.47 236.69 263.13 237.3 263.68C237.34 263.72 237.4 263.7 237.42 263.65L239.46 257.28C239.48 257.21 239.58 257.22 239.6 257.28C243.54 270.5 254.38 273.2 255.85 273.51C255.94 273.52 255.98 273.45 255.94 273.39ZM203.05 156.88C203.05 156.88 211.01 176.52 208.54 175.2C206.08 173.87 203.68 175.71 203.68 175.71V176.03C202.48 173.63 202.29 162.58 202.16 159.1C202.04 155.62 203.05 156.88 203.05 156.88ZM211.33 181.14C211.33 181.14 207.6 178.99 203.06 182.09C203.05 182.08 205.89 175.2 211.33 181.14ZM203.68 188.53C207.09 181.77 211.76 187.71 211.76 187.71C206.84 184.61 203.68 188.53 203.68 188.53ZM210.32 230.08C210.32 230.08 220.87 219.03 219.98 208.67C219.98 208.67 226.04 225.22 210.32 230.08ZM226.11 230.08C226.11 230.08 226.93 220.29 227.75 229.7V231.41C227.75 231.41 226.68 230.72 226.11 231.41C225.54 232.11 226.11 230.08 226.11 230.08ZM225.22 234.51C225.22 234.51 227.11 231.54 228.82 234.51C228.82 234.51 226.36 233.75 225.22 234.51ZM232.93 249.41L230.78 251.12C230.78 251.12 230.21 251.88 231.1 247.77C231.98 243.66 231.1 234.51 231.1 234.51C233.87 239.18 232.93 249.41 232.93 249.41Z" fill="#D8D8D5"/>
</g>
<g id="Group_2">
<path id="Vector_2" d="M138.57 197.87L114 116.84L101.31 74.4C101.31 74.4 88.61 39.26 111.01 25.23C111.07 25.2 111.06 25.11 110.99 25.1C109.74 24.91 102.12 24.06 99.74 30.98C99.74 30.99 99.73 31.01 99.71 31.01L98.21 32.07C98.21 32.07 99.19 27.66 98.38 26.62C98.36 26.59 98.32 26.58 98.29 26.6C97.79 26.85 93.42 29.09 95.21 34.79C95.21 34.79 96.21 37.17 95.4 38.01C94.82 38.62 94.02 38.23 93.62 37.97C93.45 37.86 93.33 37.69 93.26 37.5C93.12 37.1 93.07 36.41 93.33 35.74C93.72 34.73 93.21 33.31 93.21 33.31L92.77 32.06L92.57 31.59C91.16 28.38 89.2 27.24 88.24 26.52C84.34 23.63 80.24 23.6 78.96 23.61C77.35 23.62 73.22 23.72 69.61 26.77C68.86 27.4 66.64 29.34 65.63 32.71C65.42 33.4 63.71 39.51 67.78 43.83C68.07 44.14 71.98 48.16 76.81 46.86C79.36 46.18 83.04 43.78 82.68 40.42C82.36 37.46 79.04 34.94 76.17 35.49C74.49 35.81 72.2 37.34 72.44 39.34C72.62 40.85 74.2 42.22 76.29 42.37L76.61 43.19C76.26 43.25 72.38 43.84 70.04 41.23C67.07 37.92 69.63 32.87 69.79 32.58C71.88 28.6 77.13 26.38 81.79 27.72C86.57 29.09 89.59 33.97 89.55 39.43C89.55 39.43 89.74 45.28 89.11 50.52C88.48 55.76 86.9 65.3 86.9 65.3L80.21 97.83L71.87 139.39C71.87 139.39 64.04 178.36 61.39 185.87C58.74 193.39 57.54 202.48 46.61 232.29C46.61 232.3 35.36 256.22 23.47 273.39C23.43 273.44 23.48 273.51 23.54 273.5C25.02 273.19 35.85 270.49 39.79 257.27C39.81 257.2 39.91 257.2 39.93 257.27L41.97 263.64C41.99 263.69 42.05 263.71 42.09 263.67C42.7 263.12 46.45 259.46 44.8 254.32C44.79 254.29 44.8 254.26 44.82 254.24L46.04 253.32C46.04 253.32 47.21 256.9 49.98 257.65C50.03 257.66 50.08 257.63 50.08 257.58C50.04 256.79 49.88 251.47 52.04 247.38C54.23 243.23 51.02 238.37 52.55 237.65C53.06 237.41 53.69 237.66 54.13 237.9C54.13 237.9 56.15 243.2 61.38 242.07C61.39 242.07 61.39 242.07 61.4 242.06C61.52 241.97 63.93 240.02 61.71 233.98L62.4 233.6C62.4 233.6 69.19 239.2 73.68 231.25C73.7 231.22 73.69 231.19 73.67 231.17C73.28 230.86 70.24 228.22 71.25 221.47C71.25 221.47 72.13 217.62 69.17 214.71C69.17 214.71 68.1 211.93 70.56 213.89C73.02 215.85 73.84 215.6 74.85 215.41C75.86 215.22 75.92 208.78 72.7 207.01C69.48 205.24 67.77 200.25 67.58 198.55C67.4 196.9 67.21 193.41 69.84 192.85C72.08 192.37 73.89 194.1 73.92 196.38C73.98 200.12 71.86 201.33 71.54 201.5C71.51 201.51 71.5 201.54 71.51 201.57C71.57 201.79 71.91 202.76 73.46 204.36C75.23 206.19 78.77 210.87 77.31 215.16C76.04 218.91 74.01 218.04 73.51 217.76C73.46 217.73 73.4 217.77 73.4 217.83C73.44 218.57 73.62 222.15 73.39 224.07C73.14 226.21 73.96 228.36 76.22 230.44C76.23 230.45 76.23 230.45 76.24 230.46C76.26 230.57 76.42 231.63 75.1 233.42L77.69 232.16C77.69 232.16 78.7 232.16 78.07 233.17C77.48 234.11 75.7 235.43 75.45 235.61C75.43 235.62 75.42 235.64 75.42 235.67L75.37 237.59C75.19 254.26 78.8 265.57 79.97 266.45C80.97 267.21 82.71 263.58 83.19 262.53C83.22 262.46 83.32 262.48 83.32 262.55C83.55 267.12 84.36 270.55 90.75 282.68C93.79 288.44 97.89 290.16 99.97 290.92C101.94 291.64 106.51 291.55 108.38 290.11C110.25 288.67 110.63 286.65 110.44 285.75C110.25 284.85 109.68 283.21 107.91 281.9C106.14 280.59 104.12 281.39 103.11 282.17C102.1 282.94 101.58 284.51 102.46 286.12C103.34 287.73 105.49 287 106.39 286.44C107.29 285.87 107.78 286.28 107.78 286.28C107.78 286.28 108.29 286.8 107.43 287.56C106.79 288.13 106.24 288.39 106 288.48C105.92 288.5 105.84 288.52 105.76 288.54C103.85 289.47 99.86 289.21 97.08 284.95C94.05 280.31 90.69 275.19 87.65 264.82C84.62 254.45 81.71 232.15 81.71 232.15C81.71 232.15 81.7 231.84 81.69 231.28C81.68 230.97 81.67 230.59 81.66 230.14C81.47 222.9 80.92 198.27 81.78 192.36C82.79 185.41 85.44 152.13 85.44 152.13L90.43 108.06C90.43 108.05 90.43 108.04 90.43 108.04C91.13 103.38 90.31 106.15 96.12 75.27C96.12 75.27 96.06 70.98 103.57 97.12C111.09 123.27 126.75 176.38 126.75 176.38L141.91 226.46L150.99 253.33C151 253.35 150.99 253.38 150.98 253.4C149.89 254.7 148.79 256.05 147.7 257.47C144.92 261.07 142.52 264.6 140.43 267.99C140.7 268.2 140.99 268.45 141.28 268.75C142.11 269.61 142.57 270.53 142.84 271.23C142.86 271.29 142.93 271.29 142.96 271.24C144.6 268.72 146.42 266.1 148.43 263.41C150.78 260.28 153.12 257.43 155.39 254.85C155.41 254.83 155.41 254.81 155.4 254.78L138.57 197.87ZM48.64 251.12L46.49 249.41C46.49 249.41 45.54 239.18 48.32 234.5C48.32 234.5 47.44 243.66 48.32 247.76C49.21 251.87 48.64 251.12 48.64 251.12ZM51.67 229.71C52.49 220.3 53.31 230.09 53.31 230.09C53.31 230.09 53.88 232.11 53.31 231.42C52.74 230.73 51.67 231.42 51.67 231.42V229.71ZM50.59 234.51C52.3 231.54 54.19 234.51 54.19 234.51C53.06 233.75 50.59 234.51 50.59 234.51ZM69.1 230.08C53.37 225.22 59.44 208.67 59.44 208.67C58.55 219.03 69.1 230.08 69.1 230.08ZM67.65 187.71C67.65 187.71 72.32 181.77 75.73 188.53C75.73 188.53 72.57 184.61 67.65 187.71ZM68.09 181.14C73.52 175.2 76.36 182.09 76.36 182.09C71.82 178.99 68.09 181.14 68.09 181.14ZM77.25 159.09C77.12 162.56 76.93 173.62 75.73 176.02V175.7C75.73 175.7 73.33 173.87 70.87 175.19C68.41 176.52 76.36 156.87 76.36 156.87C76.36 156.87 77.37 155.62 77.25 159.09Z" fill="#D8D8D5"/>
</g>
</g>
<g id="Bas M">
<g id="Group_3">
<g id="Group_4">
<path id="Vector_3" d="M165.7 272.94C165.7 273.29 165.46 273.59 165.12 273.67C163.94 273.96 161.19 274.22 159.62 271.04C157.58 266.92 154.55 268.53 154.55 268.53C154.55 268.53 152.28 269.67 151.9 271.23C151.9 271.23 153.75 269.52 155.21 269.62C155.21 269.62 152.18 273.27 151.47 279.09C150.76 284.92 150.52 289.99 148.63 291.93C146.73 293.87 142.42 295.96 140.2 291.64L139.67 291.62L139.15 291.64C136.92 295.96 132.61 293.87 130.71 291.93C128.82 289.99 128.58 284.92 127.87 279.09C127.16 273.27 124.13 269.62 124.13 269.62C125.6 269.52 127.45 271.23 127.45 271.23C127.07 269.67 124.79 268.53 124.79 268.53C124.79 268.53 121.76 266.92 119.72 271.04C118.15 274.22 115.4 273.96 114.22 273.67C113.88 273.59 113.65 273.29 113.64 272.94C113.62 271.07 114.02 266.37 120.2 265.45C126.32 264.53 128.63 269.1 129.1 270.23C129.17 270.38 129.17 270.55 129.12 270.72C126.97 278.14 133.41 284.49 133.41 284.49L132.85 285.16C132.85 285.16 131.65 286.71 133.65 288.04C134.83 288.84 136.04 287.91 136.42 286.74C136.51 286.46 136.52 285.94 136.52 285.87C136.54 285.36 136.54 283.47 135.02 282.46C133.32 281.32 132.04 278.62 132.04 278.62C129.97 274.3 130.66 271.96 131.15 271.04C131.32 270.72 131.69 270.58 132.04 270.67C134.88 271.4 135.26 274.59 135.26 274.59C135.26 274.59 136.35 275.54 136.82 274.59C137.24 273.77 136.64 272.53 136.43 272.11C136.39 272.05 136.15 271.57 136.14 271.49C134.98 266.12 137.55 263.41 139.13 262.3C139.29 262.19 139.47 262.15 139.64 262.17H139.7C139.87 262.15 140.05 262.19 140.21 262.3C141.79 263.41 144.36 266.12 143.21 271.49C143.19 271.57 142.95 272.05 142.92 272.11C142.7 272.53 142.11 273.77 142.52 274.59C142.99 275.54 144.08 274.59 144.08 274.59C144.08 274.59 144.46 271.4 147.31 270.67C147.65 270.58 148.02 270.72 148.19 271.04C148.69 271.96 149.38 274.3 147.3 278.62C147.3 278.62 146.02 281.32 144.32 282.46C142.8 283.47 142.8 285.36 142.82 285.87C142.83 285.94 142.84 286.46 142.93 286.74C143.3 287.91 144.51 288.84 145.69 288.04C147.69 286.71 146.5 285.16 146.5 285.16L145.93 284.49C145.93 284.49 152.37 278.14 150.22 270.72C150.17 270.55 150.18 270.38 150.24 270.23C150.71 269.1 153.03 264.53 159.15 265.45C165.32 266.37 165.72 271.07 165.7 272.94Z" fill="#D8D8D5"/>
</g>
<g id="Group_5">
<path id="Vector_4" d="M139.67 304.8C141.796 304.8 143.52 303.076 143.52 300.95C143.52 298.824 141.796 297.1 139.67 297.1C137.544 297.1 135.82 298.824 135.82 300.95C135.82 303.076 137.544 304.8 139.67 304.8Z" fill="#D8D8D5"/>
</g>
<g id="Group_6">
<path id="Vector_5" d="M143.52 309.65C143.52 310.08 143.29 312.03 143.15 312.42L141.58 323.32C141.27 325.53 138.08 325.53 137.77 323.32L136.21 312.19C136.07 311.8 135.82 310.08 135.82 309.65C135.82 307.52 137.55 305.8 139.68 305.8C141.81 305.8 143.52 307.52 143.52 309.65Z" fill="#D8D8D5"/>
</g>
</g>
</g>
</g>
</g>
</g>
<defs>
<clipPath id="clip0">
<rect width="281.78" height="341.69" fill="white"/>
</clipPath>
</defs>
</svg>
