<svg width="842" height="596" viewBox="0 0 842 596" fill="none" xmlns="http://www.w3.org/2000/svg">
<g id="scroll 1">
<g id="Group">
<path id="Vector" d="M378.75 490.01C371.63 488.31 364.32 487.14 357.41 484.82C322.09 472.96 297.22 438.98 297.1 401.74C296.86 332.63 296.79 263.51 297.11 194.39C297.33 146.25 337.34 106.55 385.51 106.07C409.5 105.83 433.5 105.83 457.5 106.07C505.68 106.55 545.66 146.2 545.89 194.39C546.23 263.5 546.21 332.62 545.89 401.74C545.68 446.29 510.99 484.21 466.72 489.33C465.88 489.43 465.08 489.78 464.26 490.01C435.75 490.01 407.25 490.01 378.75 490.01ZM516 297.98C516 264.24 516.04 230.51 515.99 196.77C515.93 162.44 489.5 136.08 455.12 136.01C432.63 135.97 410.14 135.96 387.65 136.01C353.52 136.09 327.05 162.51 327.02 196.62C326.97 264.22 326.96 331.82 327.02 399.41C327.05 433.49 353.55 459.9 387.69 459.99C410.31 460.05 432.92 460.06 455.54 459.95C459.63 459.93 463.8 459.57 467.8 458.73C496.34 452.78 515.93 428.71 515.99 399.55C516.06 365.71 516 331.84 516 297.98Z" fill="#F9F9F9"/>
<g id="fleche">
<path id="Vector_2" d="M353.8 190.46C361.18 183.48 368.24 176.79 375.57 169.85C390.67 185.8 405.67 201.64 421.04 217.88C436.16 201.83 451.11 185.97 466.26 169.89C473.54 176.74 480.69 183.46 488.1 190.41C465.73 214.19 443.57 237.74 421.12 261.6C398.72 237.94 376.42 214.37 353.8 190.46Z" fill="#FBFBFB"/>
</g>
</g>
</g>
</svg>
